<mxfile host="app.diagrams.net" modified="2023-09-27T01:33:20.283Z" agent="Mozilla/5.0 (X11; Linux x86_64) AppleWebKit/537.36 (KHTML, like Gecko) Chrome/117.0.0.0 Safari/537.36" version="21.8.2" etag="yH3mvObuSjgfr1qW6CZ1" type="github">
  <diagram name="Page-1" id="A8JQLGdQjMddXGh0sszI">
    <mxGraphModel>
      <root>
        <mxCell id="0" />
        <mxCell id="1" parent="0" />
      </root>
    </mxGraphModel>
  </diagram>
</mxfile>
